Coordinates
version=1
nRows=14
nColumns=32
inDegrees=yes

Units are S.I. units (second, meters, Newtons, ...)
If the header above contains a line with 'inDegrees', this indicates whether rotational values are in degrees (yes) or radians (no).

endheader
time	pelvis_tilt	pelvis_list	pelvis_rotation	pelvis_tx	pelvis_ty	pelvis_tz	hip_flexion_r	hip_adduction_r	hip_rotation_r	knee_angle_r	knee_adduction_r	med_cond_adduction_r	lat_cond_adduction_r	patella_r_constrained_knee_angle	ankle_angle_r	subtalar_angle_r	mtp_angle_r	hip_flexion_l	hip_adduction_l	hip_rotation_l	knee_angle_l	knee_adduction_l	med_cond_adduction_l	lat_cond_adduction_l	patella_l_constrained_knee_angle	ankle_angle_l	subtalar_angle_l	mtp_angle_l	lumbar_extension	lumbar_bending	lumbar_rotation
      0.22500000	    -19.67941271	     19.30057067	     72.59914990	      0.51692787	      1.11204808	     -0.61642619	    -27.95622492	    -27.01000220	      3.19696027	    -11.18905881	      0.00000000	     -0.00000000	     -0.00000000	     -0.19528592	     -0.28119226	      8.06465600	     -0.00000000	    -22.85488832	     25.41539057	     -9.33735371	    -54.64432945	     -0.00000000	     -0.00000000	      0.00000000	     -0.95372347	      5.84883405	     11.36374557	     -0.00000000	     -0.00000000	     -0.00000000	      0.00000000
      0.22916667	    -21.39487786	     18.62414491	     72.98406345	      0.51549231	      1.11250762	     -0.62948311	    -27.52686358	    -28.88863806	      0.05204057	    -11.30988875	      0.00000000	     -0.00000000	      0.00000000	     -0.19739480	     -1.43446095	     10.71902315	     -0.00000000	    -20.88779675	     26.79732674	     -9.21547720	    -53.55272444	      0.00000000	      0.00000000	     -0.00000000	     -0.93467136	      5.45114953	     10.49455428	      0.00000000	     -0.00000000	     -0.00000000	      0.00000000
      0.23333333	    -23.05866697	     17.82999397	     73.35880790	      0.51397896	      1.11290338	     -0.64263270	    -27.01247128	    -30.69814317	     -3.06136674	    -11.48657279	     -0.00000000	      0.00000000	     -0.00000000	     -0.20047851	     -2.74461616	     13.24923139	     -0.00000000	    -18.84742518	     28.12141915	     -9.12741727	    -52.31623583	      0.00000000	      0.00000000	     -0.00000000	     -0.91309057	      5.02494082	      9.57091475	      0.00000000	     -0.00000000	     -0.00000000	      0.00000000
      0.23750000	    -24.29499448	     16.89182849	     73.72491234	      0.51236287	      1.11345822	     -0.65572583	    -26.45501789	    -31.99980258	     -5.93939700	    -11.61308398	      0.00000000	      0.00000000	     -0.00000000	     -0.20268655	     -4.42197941	     15.27174024	      0.00000000	    -16.74889184	     28.96958019	     -9.13786839	    -51.17605215	      0.00000000	      0.00000000	     -0.00000000	     -0.89319061	      4.70176868	      8.77468429	      0.00000000	      0.00000000	     -0.00000000	      0.00000000
      0.24166667	    -25.11593704	     15.98806884	     74.03586545	      0.51077834	      1.11416883	     -0.66894515	    -26.02886906	    -32.88088326	     -8.62458536	    -11.67779374	     -0.00000000	      0.00000000	     -0.00000000	     -0.20381595	     -6.39675117	     16.90185978	     -0.00000000	    -14.81762908	     29.39670670	     -9.29685313	    -50.02016848	     -0.00000000	      0.00000000	     -0.00000000	     -0.87301663	      4.32299826	      8.22452156	      0.00000000	      0.00000000	     -0.00000000	      0.00000000
      0.24583333	    -25.70536251	     15.06804107	     74.36899889	      0.50912467	      1.11508142	     -0.68211961	    -25.65660535	    -33.48356148	    -11.18369944	    -11.70350003	      0.00000000	     -0.00000000	      0.00000000	     -0.20426461	     -8.67731261	     17.96746823	     -0.00000000	    -12.95321344	     29.59767205	     -9.37544397	    -48.82608755	      0.00000000	      0.00000000	     -0.00000000	     -0.85217599	      3.83830057	      7.57016099	     -0.00000000	      0.00000000	      0.00000000	      0.00000000
      0.25000000	    -26.15359899	     14.11374870	     74.70737232	      0.50740153	      1.11605076	     -0.69525132	    -25.27051886	    -33.91377842	    -13.63660802	    -11.70738627	      0.00000000	      0.00000000	     -0.00000000	     -0.20433244	    -11.17445553	     18.61586310	      0.00000000	    -11.11396915	     29.68023641	     -9.37329361	    -47.61199173	      0.00000000	      0.00000000	     -0.00000000	     -0.83098602	      3.22135353	      6.87878613	     -0.00000000	      0.00000000	      0.00000000	      0.00000000
      0.25416667	    -26.56307654	     13.13661877	     75.05675921	      0.50564190	      1.11708854	     -0.70848947	    -24.86206398	    -34.29507772	    -16.04825055	    -11.79617136	      0.00000000	     -0.00000000	      0.00000000	     -0.20588203	    -13.79379040	     18.97487880	      0.00000000	     -9.31433205	     29.73673504	     -9.29339617	    -46.24762126	     -0.00000000	     -0.00000000	      0.00000000	     -0.80717326	      2.54202410	      6.30531842	      0.00000000	      0.00000000	     -0.00000000	      0.00000000
      0.25833333	    -26.89572511	     12.21549296	     75.35563768	      0.50391142	      1.11802365	     -0.72167548	    -24.50740636	    -34.63373026	    -18.30020757	    -11.80465464	      0.00000000	     -0.00000000	      0.00000000	     -0.20603009	    -16.46053416	     19.19131449	     -0.00000000	     -7.59447823	     29.76418328	     -9.19280922	    -44.84807944	      0.00000000	     -0.00000000	      0.00000000	     -0.78274665	      2.07530226	      5.83946324	      0.00000000	      0.00000000	      0.00000000	      0.00000000
      0.26250000	    -27.18327383	     11.23580497	     75.71459611	      0.50196666	      1.11903275	     -0.73495531	    -24.12489040	    -34.90010627	    -20.62030393	    -11.76777442	     -0.00000000	     -0.00000000	      0.00000000	     -0.20538641	    -19.42270381	     19.30112223	      0.00000000	     -5.90158205	     29.78455666	     -8.88573760	    -43.36960436	      0.00000000	      0.00000000	     -0.00000000	     -0.75694239	      1.42984970	      5.15846921	     -0.00000000	      0.00000000	      0.00000000	      0.00000000
      0.26666667	    -27.43821679	     10.28092275	     76.06452422	      0.49998227	      1.11989245	     -0.74829348	    -23.77438987	    -35.16220128	    -22.90882950	    -11.74969017	      0.00000000	      0.00000000	     -0.00000000	     -0.20507078	    -22.43061831	     19.36438493	     -0.00000000	     -4.27059609	     29.80089748	     -8.50431063	    -41.91361947	      0.00000000	      0.00000000	     -0.00000000	     -0.73153066	      0.82022361	      4.59648822	      0.00000000	     -0.00000000	      0.00000000	      0.00000000
      0.27083333	    -27.63496856	      9.32617280	     76.46270145	      0.49783259	      1.12077102	     -0.76158343	    -23.44332171	    -35.36053334	    -25.18687535	    -11.78057212	     -0.00000000	      0.00000000	     -0.00000000	     -0.20560977	    -25.48394329	     19.40252861	      0.00000000	     -2.70254866	     29.80728547	     -7.98141749	    -40.25513467	     -0.00000000	      0.00000000	     -0.00000000	     -0.70258464	     -0.13698413	      3.74471123	     -0.00000000	     -0.00000000	      0.00000000	      0.00000000
      0.27500000	    -27.80535864	      8.40387688	     76.85603059	      0.49568674	      1.12151449	     -0.77496791	    -23.15996552	    -35.56402429	    -27.45727183	    -11.81863712	     -0.00000000	     -0.00000000	      0.00000000	     -0.20627413	    -28.40040384	     19.39766877	     -0.00000000	     -1.22287583	     29.81305355	     -7.36696488	    -38.62881601	     -0.00000000	     -0.00000000	      0.00000000	     -0.67420003	     -0.97325886	      3.01687656	      0.00000000	      0.00000000	      0.00000000	      0.00000000
      0.27916667	    -27.93448812	      7.53135198	     77.26645885	      0.49354531	      1.12219084	     -0.78834574	    -22.93050228	    -35.74020315	    -29.72196212	    -11.87021559	     -0.00000000	     -0.00000000	      0.00000000	     -0.20717434	    -31.35433469	     19.40199580	     -0.00000000	      0.14570955	     29.81156123	     -6.63325615	    -36.91990987	      0.00000000	     -0.00000000	      0.00000000	     -0.64437399	     -1.81972670	      2.38102745	      0.00000000	      0.00000000	      0.00000000	      0.00000000
